<svg width="40" height="40" viewBox="0 0 40 40" fill="none" xmlns="http://www.w3.org/2000/svg">
<g clip-path="url(#clip0_9616_32137)">
<path d="M20 0C8.95556 0 0 8.95556 0 20C0 21.8851 0.268893 23.7079 0.755732 25.4373C1.31616 25.9411 2.04076 26.2581 2.81913 26.3034C2.09454 24.3363 1.69544 22.2134 1.69544 20C1.69827 9.90943 9.90943 1.69827 20 1.69827C30.0906 1.69827 38.3017 9.90943 38.3017 20C38.3017 21.0614 38.2055 22.1002 38.0328 23.1107C34.1438 20.951 30.5378 17.8432 28.4178 14.1693C25.2618 8.70082 22.7229 6.78177 19.5273 6.78177C14.0051 6.78177 12.1455 11.6756 12.1455 11.6756C13.0993 9.74526 20.201 9.02349 19.8104 16.2213C19.7141 18.0159 18.9527 19.533 17.8517 20.8038C17.4894 20.3538 17.1611 19.8868 16.878 19.3999C15.0722 16.2751 13.623 15.1769 11.7945 15.1769C8.63855 15.1769 7.5743 17.9734 7.5743 17.9734C8.12058 16.8695 12.1795 16.4563 11.9558 20.5718C11.8483 22.5531 10.3283 23.94 8.72346 24.8627C9.349 25.7628 10.3821 26.3176 11.5086 26.3176C12.8814 26.3176 14.1098 25.4996 14.6419 24.2344C14.8316 23.7843 15.2675 23.49 15.7515 23.49C16.2383 23.49 16.6742 23.7815 16.8639 24.2344C17.396 25.4996 18.6244 26.3176 19.9972 26.3176C21.3699 26.3176 22.5984 25.4996 23.1305 24.2344C23.3201 23.7815 23.756 23.49 24.2429 23.49C24.7297 23.49 25.1656 23.7815 25.3552 24.2344C25.8873 25.4996 27.1158 26.3176 28.4885 26.3176C29.8613 26.3176 31.0897 25.4996 31.6219 24.2344C31.8115 23.7815 32.2474 23.4928 32.7342 23.4928H32.7512C33.2295 23.5013 33.6598 23.79 33.8438 24.2344C34.3759 25.4996 35.6043 26.3176 36.9771 26.3176C37.0422 26.3176 37.1101 26.3147 37.1752 26.3091C37.9564 26.2638 38.6838 25.9468 39.2471 25.4373C39.3858 24.9448 39.5103 24.4438 39.6122 23.9343C39.867 22.6635 40 21.3501 40 20.0057C40 8.95556 31.0444 0 20 0Z" fill="#007931"/>
<path d="M36.4564 27.982C34.9308 27.8263 33.5693 26.9998 32.7315 25.7346C31.8003 27.1414 30.218 28.0103 28.4858 28.0103C26.7536 28.0103 25.1742 27.1414 24.2401 25.7346C23.3089 27.1414 21.7267 28.0103 19.9944 28.0103C18.2622 28.0103 16.6828 27.1414 15.7488 25.7346C14.8175 27.1414 13.2353 28.0103 11.5031 28.0103C9.77083 28.0103 8.19143 27.1414 7.25738 25.7346C6.41957 26.9998 5.05529 27.8263 3.52967 27.982C3.35985 27.999 3.18719 28.0103 3.01453 28.0103C2.5192 28.0103 2.03802 27.9367 1.57666 27.8009C4.61657 34.9704 11.7125 40.0001 19.9916 40.0001C28.2707 40.0001 35.3666 34.9704 38.4065 27.8009C37.948 27.9367 37.464 28.0131 36.9687 28.0131C36.7932 28.0131 36.6205 28.0018 36.4479 27.9848L36.4564 27.982Z" fill="#007931"/>
</g>
<defs>
<clipPath id="clip0_9616_32137">
<rect width="40" height="40" fill="white"/>
</clipPath>
</defs>
</svg>
