<?xml version="1.0" encoding="UTF-8"?>
<svg width="40px" height="40px" viewBox="0 0 40 40" version="1.1" xmlns="http://www.w3.org/2000/svg" xmlns:xlink="http://www.w3.org/1999/xlink">
    <!-- Generator: Sketch 53.1 (72631) - https://sketchapp.com -->
    <title>Icon</title>
    <desc>Created with Sketch.</desc>
    <g id="Page-1" stroke="none" stroke-width="1" fill="none" fill-rule="evenodd">
        <g id="Icon" fill="#007931">
            <path d="M28.2990704,0.00290140845 C28.2990704,0.00290140845 33.4669577,3.12290141 28.2990704,7.94487324 C24.042169,11.9169859 25.6418873,13.3254366 28.2990704,15.4144507 C33.8863944,19.8068451 35.1390704,22.681493 30.2872394,29.5544507 C26.7323099,34.5907887 30.157662,39.8082535 30.157662,39.8082535 L7.74949296,39.8082535 C7.74949296,39.8082535 8.60047887,29.3133239 16.8261127,24.9637465 C25.0520282,20.6147324 13.5168169,16.7381127 16.2587887,10.8761408 C19.0463944,4.91670423 31.8596338,5.58121127 28.2990704,0.00290140845" id="Fill-1"></path>
            <polygon id="Fill-4" points="38.6670141 7.3771831 39.1230704 7.3771831 37.9895493 4.67605634 38.4602535 4.67605634 37.6177183 2.6684507 37.8723662 2.6684507 37.0577183 0.000281690141 36.242507 2.6684507 36.4974366 2.6684507 35.6546197 4.67605634 36.1258873 4.67605634 34.9915211 7.3771831 35.4487042 7.3771831 34.3165915 10.0723944 35.7926479 10.0723944 39.7982817 10.0723944"></polygon>
            <polygon id="Fill-6" points="7.38785915 19.5850423 8.16250704 19.5850423 6.23743662 14.9982817 7.03687324 14.9982817 5.60616901 11.5889859 6.03828169 11.5889859 4.65490141 7.05743662 3.27039437 11.5889859 3.7036338 11.5889859 2.27208451 14.9982817 3.07292958 14.9982817 1.1464507 19.5850423 1.92250704 19.5850423 -2.81690141e-05 24.1622254 2.5064507 24.1622254 9.30870423 24.1622254"></polygon>
            <polygon id="Fill-9" points="12.9970423 20.843831 13.5587324 20.843831 12.1629577 17.5181972 12.7423944 17.5181972 11.7052113 15.0469296 12.0184507 15.0469296 11.0156338 11.7615775 10.0119718 15.0469296 10.3260563 15.0469296 9.28802817 17.5181972 9.86859155 17.5181972 8.47197183 20.843831 9.03450704 20.843831 7.64070423 24.1621408 9.45816901 24.1621408 14.3897183 24.1621408"></polygon>
        </g>
    </g>
</svg>