<?xml version="1.0" encoding="UTF-8"?>
<svg width="40px" height="40px" viewBox="0 0 40 40" version="1.1" xmlns="http://www.w3.org/2000/svg" xmlns:xlink="http://www.w3.org/1999/xlink">
    <!-- Generator: Sketch 53.1 (72631) - https://sketchapp.com -->
    <title>People</title>
    <desc>Created with Sketch.</desc>
    <g id="Page-1" stroke="none" stroke-width="1" fill="none" fill-rule="evenodd">
        <g id="People" transform="translate(0.000000, 0.000000)" fill="#007931">
            <path d="M19.6021972,11.0870423 C21.1951549,11.0870423 22.4867042,9.79577465 22.4867042,8.20253521 C22.4867042,6.60929577 21.1951549,5.31802817 19.6021972,5.31802817 C18.0092394,5.31802817 16.7176901,6.60929577 16.7176901,8.20253521 C16.7176901,9.79577465 18.0092394,11.0870423 19.6021972,11.0870423" id="Fill-1"></path>
            <path d="M27.7646197,23.0668451 C27.0482817,17.4381127 24.159831,12.7257183 23.8313803,12.5245915 C23.6001127,12.3826197 23.3429296,12.3192394 23.0885634,12.3189577 C23.0747606,12.3183944 23.0618028,12.3147324 23.0477183,12.3147324 L16.7710986,12.3147324 C16.7482817,12.3147324 16.7271549,12.3203662 16.7049014,12.3217746 C16.4575775,12.3237465 16.208,12.3857183 15.9815211,12.5245915 C15.6530704,12.7257183 12.7646197,17.4381127 12.0482817,23.0668451 C11.9499718,23.8398028 12.4857465,24.6158592 13.2587042,24.7130423 C13.3189859,24.7206479 13.3792676,24.7243099 13.4384225,24.7243099 C14.1392676,24.7243099 14.7463099,24.2017746 14.8344789,23.4885352 C15.0674366,21.6037465 15.5840563,19.7310704 16.0992676,18.2183944 L16.3133521,21.2907887 C16.3533521,21.8693803 16.3358873,22.450507 16.2603944,23.0257183 L14.2950423,38.0012113 C14.1849014,38.8412113 14.703493,39.6682535 15.5294085,39.8567042 C15.6547606,39.8854366 15.7795493,39.8992394 15.9020845,39.8992394 C16.7060282,39.8992394 17.4051831,39.3029014 17.512507,38.4840282 L19.1482817,26.0206479 C19.1764507,25.8048732 19.3603944,25.6434648 19.5778592,25.6434648 L20.2206761,25.6434648 C20.4381408,25.6434648 20.6220845,25.8048732 20.6505352,26.0206479 L22.2860282,38.4840282 C22.3936338,39.3031831 23.092507,39.8992394 23.8967324,39.8992394 C23.9572958,39.8992394 24.0189859,39.8958592 24.0806761,39.8888169 C24.9863099,39.7865634 25.6195493,38.8857183 25.5009577,37.982338 L23.5513803,23.1268451 C23.4758873,22.5519155 23.4584225,21.970507 23.4984225,21.3921972 L23.7175775,18.2465634 C24.231662,19.750507 24.7463099,21.6088169 24.9784225,23.4885352 C25.0665915,24.2020563 25.6739155,24.7243099 26.3744789,24.7243099 C26.4339155,24.7243099 26.4939155,24.7206479 26.5541972,24.7130423 C27.3274366,24.6158592 27.8632113,23.8398028 27.7646197,23.0668451" id="Fill-3"></path>
            <path d="M5.97543662,4.55659155 C7.23374648,4.55659155 8.25374648,3.53659155 8.25374648,2.27828169 C8.25374648,1.02025352 7.23374648,0.000253521127 5.97543662,0.000253521127 C4.71712676,0.000253521127 3.69712676,1.02025352 3.69712676,2.27828169 C3.69712676,3.53659155 4.71712676,4.55659155 5.97543662,4.55659155" id="Fill-6"></path>
            <path d="M12.4223944,14.018507 C11.8564789,9.57287324 9.57507042,5.85090141 9.3156338,5.69202817 C9.13309859,5.57991549 8.93,5.52977465 8.72915493,5.52977465 C8.71816901,5.52921127 8.70802817,5.52639437 8.69676056,5.52639437 L3.73929577,5.52639437 C3.72126761,5.52639437 3.70464789,5.53061972 3.6871831,5.53202817 C3.49169014,5.53343662 3.29450704,5.5824507 3.1156338,5.69202817 C2.85647887,5.85090141 0.575070423,9.57287324 0.00915492958,14.018507 C-0.0685915493,14.6289296 0.354507042,15.242169 0.965211268,15.3187887 C1.0128169,15.3247042 1.06042254,15.3275211 1.1071831,15.3275211 C1.66070423,15.3275211 2.14014085,14.9151268 2.20971831,14.3517465 C2.39366197,12.8630141 2.80183099,11.3838592 3.20887324,10.1892113 L3.37760563,12.6159718 C3.40943662,13.0728732 3.3956338,13.5317465 3.33591549,13.9861127 L1.78380282,25.814 C1.69676056,26.4773803 2.10633803,27.1306197 2.75873239,27.2796338 C2.85760563,27.302169 2.95619718,27.3131549 3.0528169,27.3131549 C3.68802817,27.3131549 4.24014085,26.842169 4.32492958,26.1956901 L5.61676056,16.3514648 C5.63901408,16.1810423 5.7843662,16.0537183 5.95619718,16.0537183 L6.46408451,16.0537183 C6.63591549,16.0537183 6.78098592,16.1810423 6.80323944,16.3514648 L8.09507042,26.1956901 C8.18014085,26.842169 8.73197183,27.3131549 9.3671831,27.3131549 C9.41535211,27.3131549 9.46408451,27.3106197 9.5128169,27.3049859 C10.2277465,27.2241408 10.7280282,26.5125915 10.634507,25.7990704 L9.09478873,14.0661127 C9.03507042,13.6117465 9.02098592,13.1528732 9.05309859,12.6956901 L9.22577465,10.2114648 C9.63169014,11.3993521 10.0384507,12.8669577 10.221831,14.3517465 C10.2914085,14.9151268 10.7708451,15.3275211 11.3243662,15.3275211 C11.3714085,15.3275211 11.4187324,15.3247042 11.466338,15.3187887 C12.0767606,15.242169 12.5001408,14.6289296 12.4223944,14.018507" id="Fill-8"></path>
            <path d="M33.3568732,4.55659155 C34.6151831,4.55659155 35.6351831,3.53659155 35.6351831,2.27828169 C35.6351831,1.02025352 34.6151831,0.000253521127 33.3568732,0.000253521127 C32.0985634,0.000253521127 31.0785634,1.02025352 31.0785634,2.27828169 C31.0785634,3.53659155 32.0985634,4.55659155 33.3568732,4.55659155" id="Fill-11"></path>
            <path d="M39.8037183,14.018507 C39.2378028,9.57287324 36.9566761,5.85090141 36.6972394,5.69202817 C36.5144225,5.57991549 36.3113239,5.52977465 36.1104789,5.52977465 C36.099493,5.52921127 36.0893521,5.52639437 36.0783662,5.52639437 L31.1206197,5.52639437 C31.1028732,5.52639437 31.0862535,5.53061972 31.068507,5.53202817 C30.8732958,5.53343662 30.675831,5.5824507 30.4972394,5.69202817 C30.2378028,5.85090141 27.9563944,9.57287324 27.3907606,14.018507 C27.3130141,14.6289296 27.7361127,15.242169 28.3468169,15.3187887 C28.3944225,15.3247042 28.4417465,15.3275211 28.488507,15.3275211 C29.0420282,15.3275211 29.5217465,14.9151268 29.5913239,14.3517465 C29.7749859,12.8630141 30.1831549,11.3838592 30.5901972,10.1892113 L30.7592113,12.6159718 C30.7907606,13.0728732 30.7769577,13.5317465 30.7172394,13.9861127 L29.1651268,25.814 C29.0780845,26.4773803 29.487662,27.1306197 30.1400563,27.2796338 C30.2392113,27.302169 30.3378028,27.3131549 30.4344225,27.3131549 C31.0693521,27.3131549 31.6214648,26.842169 31.7062535,26.1956901 L32.9980845,16.3514648 C33.0206197,16.1810423 33.1659718,16.0537183 33.3375211,16.0537183 L33.8454085,16.0537183 C34.0172394,16.0537183 34.1623099,16.1810423 34.1848451,16.3514648 L35.4766761,26.1956901 C35.5614648,26.842169 36.1132958,27.3131549 36.748507,27.3131549 C36.7966761,27.3131549 36.8454085,27.3106197 36.8941408,27.3049859 C37.6093521,27.2241408 38.1093521,26.5125915 38.015831,25.7990704 L36.4761127,14.0661127 C36.4166761,13.6117465 36.4025915,13.1528732 36.4344225,12.6956901 L36.6073803,10.2114648 C37.0132958,11.3993521 37.4197746,12.8669577 37.6031549,14.3517465 C37.6730141,14.9151268 38.1524507,15.3275211 38.7059718,15.3275211 C38.7527324,15.3275211 38.8000563,15.3247042 38.847662,15.3187887 C39.4583662,15.242169 39.8814648,14.6289296 39.8037183,14.018507" id="Fill-13"></path>
        </g>
    </g>
</svg>