<svg width="40" height="29" viewBox="0 0 40 29" fill="none" xmlns="http://www.w3.org/2000/svg">
<g clip-path="url(#clip0_11618_36091)">
<path d="M22.0633 26.844C22.0407 26.5016 21.8397 26.1959 21.5623 25.9949L19.0602 24.2061L16.5468 26.6855L16.5156 26.7167L16.6996 26.8497L18.9979 28.5282C19.0715 28.5819 19.1508 28.6301 19.2329 28.6725C19.2555 28.6838 19.2782 28.6952 19.3008 28.7065C19.3291 28.7206 19.3602 28.732 19.3914 28.7433C19.431 28.7603 19.4678 28.7772 19.5074 28.7914C19.5244 28.7971 19.5414 28.8055 19.5584 28.8084C19.6433 28.8367 19.731 28.8565 19.8188 28.8706C19.8386 28.8735 19.8612 28.8763 19.881 28.8791C19.9518 28.8876 20.0226 28.8933 20.0962 28.8961C20.1216 28.8961 20.1471 28.8961 20.1726 28.8961C20.2264 28.8961 20.2773 28.8905 20.3311 28.8848C20.3566 28.8848 20.382 28.882 20.4075 28.8763C20.4868 28.865 20.5632 28.8508 20.6424 28.831C21.2085 28.681 21.6727 28.2847 21.9105 27.7498C22.0407 27.4582 22.0888 27.1497 22.069 26.8469C22.069 26.8469 22.069 26.844 22.069 26.8412L22.0633 26.844Z" fill="#007931"/>
<path d="M17.9366 22.9266C17.9847 22.8785 18.0271 22.8304 18.0696 22.7823C18.1941 22.6323 18.2932 22.4709 18.3668 22.2983C18.4008 22.2218 18.4291 22.1454 18.4517 22.0662C18.4772 21.9813 18.497 21.8963 18.5112 21.8086C18.5253 21.7209 18.5338 21.6331 18.5366 21.5454C18.5423 21.384 18.5281 21.2255 18.4942 21.067C18.4687 20.9481 18.4347 20.8321 18.3894 20.7217C18.3555 20.6368 18.3159 20.5547 18.2706 20.4754C18.2253 20.3962 18.1743 20.3198 18.1149 20.2462C17.9988 20.099 17.863 19.9631 17.7016 19.8471C17.6224 19.7876 17.5375 19.7395 17.4497 19.6942C17.4243 19.6801 17.396 19.6688 17.3705 19.6574C17.3082 19.6291 17.2459 19.6037 17.1808 19.581C17.1667 19.5754 17.1525 19.5725 17.1356 19.5669C17.1186 19.5612 17.1073 19.5556 17.0903 19.5527C17.062 19.5442 17.0365 19.5414 17.0082 19.5329C16.9657 19.5216 16.9233 19.5103 16.8836 19.5046C16.861 19.5018 16.8384 19.4933 16.8157 19.4905C16.8101 19.4905 16.8016 19.4905 16.7959 19.4905C16.711 19.4791 16.6232 19.4706 16.5383 19.4706C16.5355 19.4706 16.5298 19.4706 16.527 19.4706C16.5157 19.4706 16.5015 19.4735 16.4902 19.4735C16.4081 19.4735 16.326 19.482 16.2468 19.4933C16.2411 19.4933 16.2355 19.4933 16.227 19.4933C16.2241 19.4933 16.2185 19.4933 16.2157 19.4933C16.193 19.4961 16.1675 19.4989 16.1449 19.5046C16.043 19.5244 15.9439 19.5471 15.8449 19.581L15.9666 19.414C16.0119 19.3518 16.0487 19.2895 16.0855 19.2272C16.1223 19.1621 16.1534 19.0998 16.1845 19.0347C16.1987 19.0036 16.2128 18.9696 16.227 18.9385C16.2468 18.8961 16.2666 18.8564 16.2808 18.814C16.3091 18.7376 16.3345 18.6583 16.3544 18.579C16.3855 18.4573 16.4081 18.3328 16.4223 18.2083C16.4336 18.0922 16.4393 17.979 16.4364 17.8629C16.4364 17.7865 16.4279 17.7101 16.4166 17.6337C16.4166 17.611 16.411 17.5912 16.4081 17.5686C16.3855 17.4186 16.3515 17.2714 16.3034 17.1299C16.2779 17.0506 16.2468 16.9742 16.21 16.8978C16.1902 16.8525 16.159 16.81 16.1364 16.7676C16.1166 16.7279 16.0968 16.6883 16.0741 16.6487C16.0543 16.609 16.0317 16.5694 16.0062 16.5326C15.9779 16.4902 15.9411 16.4505 15.91 16.4081C15.8788 16.3656 15.8477 16.3232 15.8137 16.2835C15.76 16.2241 15.7062 16.1675 15.6467 16.1109C15.5873 16.0571 15.525 16.0033 15.4628 15.9524C15.3326 15.8533 15.191 15.7627 15.0382 15.6891C14.9561 15.6495 14.874 15.6156 14.7919 15.5844C14.7665 15.5759 14.741 15.5674 14.7155 15.5589C14.6561 15.5391 14.5966 15.5222 14.5344 15.5052C14.5174 15.4995 14.5004 15.4967 14.4834 15.4938C14.4721 15.4938 14.4636 15.4882 14.4523 15.4854C14.4438 15.4854 14.4325 15.4825 14.424 15.4797C14.3787 15.4712 14.3334 15.4627 14.2909 15.4571C14.2796 15.4571 14.2683 15.4514 14.257 15.4514C14.2372 15.4514 14.2174 15.4457 14.1947 15.4429C14.1494 15.4372 14.107 15.4372 14.0617 15.4344C14.0192 15.4344 13.9796 15.4287 13.9371 15.4287C13.9371 15.4287 13.9286 15.4287 13.9258 15.4287C13.9145 15.4287 13.9003 15.4287 13.889 15.4287C13.8862 15.4287 13.8805 15.4287 13.8777 15.4287C13.8069 15.4287 13.739 15.4344 13.6711 15.4401C13.6456 15.4401 13.6173 15.4457 13.5918 15.4486C13.5324 15.4571 13.4729 15.4684 13.4135 15.4797C13.4022 15.4797 13.3909 15.4825 13.3824 15.4854C13.3654 15.4882 13.3456 15.491 13.3286 15.4967C13.2437 15.5165 13.1588 15.5448 13.0739 15.5731C13.054 15.5816 13.0342 15.5901 13.0144 15.5957C12.9493 15.6212 12.887 15.6495 12.8219 15.6807C12.805 15.6891 12.788 15.6976 12.7682 15.7061C12.7625 15.709 12.7568 15.7118 12.7512 15.7146C12.7116 15.7373 12.6719 15.7599 12.6323 15.7854C12.604 15.8024 12.5757 15.8165 12.5502 15.8335C12.5474 15.8335 12.5417 15.8392 12.5389 15.842C12.5332 15.8448 12.5247 15.8505 12.5191 15.8533C12.4455 15.9043 12.3747 15.958 12.304 16.0175C12.2842 16.0345 12.2672 16.0514 12.2502 16.0656C12.1992 16.1109 12.1483 16.1618 12.1002 16.2128C12.0832 16.2326 12.0634 16.2524 12.0464 16.2722C11.9841 16.343 11.9247 16.4137 11.8709 16.4902L10.8887 17.8856L10.8491 17.9422L10.7699 18.0526L10.784 18.0186L10.801 17.9762L10.8123 17.9507L10.8208 17.9309L10.8944 17.7667L11.0586 17.3959C11.1293 17.2374 11.1803 17.0761 11.2114 16.9147C11.2425 16.7534 11.2567 16.5892 11.251 16.4279C11.251 16.4137 11.251 16.4024 11.2482 16.3883C11.2482 16.3883 11.2482 16.3883 11.2482 16.3854C11.2425 16.2666 11.2284 16.1505 11.2058 16.0345C11.1576 15.8052 11.0756 15.5844 10.9595 15.3806C10.9029 15.2787 10.8378 15.1825 10.7642 15.0891C10.7274 15.041 10.6821 14.9985 10.6397 14.9561C10.5208 14.8287 10.3906 14.7098 10.2434 14.6107C10.1443 14.5456 10.0368 14.4862 9.92356 14.4353C9.81034 14.3843 9.69146 14.3447 9.56692 14.3107C9.56692 14.3107 9.56409 14.3107 9.56126 14.3107C9.46785 14.2881 9.37162 14.2683 9.27821 14.2569C9.24708 14.2541 9.21594 14.2541 9.18481 14.2513C9.18481 14.2513 9.18198 14.2513 9.17915 14.2513C9.12254 14.2456 9.0631 14.24 9.00649 14.24C9.00083 14.24 8.99517 14.24 8.98951 14.24C8.96969 14.24 8.95271 14.24 8.9329 14.2428C8.86213 14.2428 8.7942 14.2513 8.72627 14.2598C8.71212 14.2598 8.69797 14.2626 8.68382 14.2654C8.66966 14.2683 8.65551 14.2683 8.64136 14.2711C8.57909 14.2824 8.51399 14.2937 8.45455 14.3107C8.43191 14.3164 8.40643 14.322 8.38379 14.3277C8.3017 14.3503 8.21962 14.3786 8.14037 14.4126C8.12905 14.4183 8.11772 14.4239 8.1064 14.4268C8.03847 14.4579 7.97054 14.489 7.90544 14.5258C7.8828 14.54 7.86015 14.5541 7.83468 14.5683C7.7809 14.6023 7.72995 14.6362 7.679 14.673C7.66768 14.6815 7.65919 14.69 7.64787 14.6957C7.63655 14.7042 7.62523 14.7098 7.61673 14.7183C7.5488 14.7721 7.4837 14.8287 7.42143 14.8881C7.39879 14.8259 7.36765 14.7693 7.33935 14.7098C7.30821 14.6475 7.27425 14.5853 7.23745 14.5258C7.20349 14.4692 7.16952 14.4126 7.1299 14.3617C7.00253 14.1918 6.84685 14.0418 6.6657 13.9173C6.60626 13.8748 6.54116 13.838 6.47606 13.8012C6.38832 13.7531 6.29491 13.7135 6.19868 13.6795C6.19868 13.6795 6.19868 13.6795 6.19585 13.6795C6.13924 13.6597 6.08263 13.6427 6.02602 13.6286C5.96941 13.6144 5.90997 13.6031 5.85336 13.5918C5.81373 13.5861 5.77411 13.5861 5.73448 13.5805C5.66938 13.5748 5.60428 13.5663 5.53918 13.5635C5.53352 13.5635 5.52786 13.5635 5.5222 13.5635C5.51654 13.5635 5.50804 13.5635 5.50238 13.5635C5.50238 13.5635 5.49955 13.5635 5.49672 13.5635C5.47408 13.5635 5.45427 13.5663 5.43162 13.5691C5.392 13.5691 5.35237 13.5776 5.31274 13.5805C5.26746 13.5861 5.225 13.5861 5.17971 13.5946C5.1599 13.5974 5.14292 13.6031 5.1231 13.6059C5.10895 13.6088 5.0948 13.6116 5.07782 13.6144C5.00139 13.6314 4.92497 13.6541 4.85138 13.6795C4.82307 13.688 4.79477 13.6965 4.7693 13.7078C4.72118 13.7276 4.67306 13.7531 4.62777 13.7786C4.58249 13.8041 4.53154 13.821 4.48625 13.8494C4.4721 13.8578 4.46078 13.8663 4.44945 13.8748C4.41549 13.8946 4.38718 13.9201 4.35605 13.9428C4.31359 13.9739 4.26831 14.0022 4.22585 14.0362C4.20037 14.0588 4.1749 14.0815 4.15226 14.1041C4.09565 14.1579 4.04187 14.2145 3.98809 14.2739C3.96545 14.2994 3.94563 14.322 3.92299 14.3503C3.85506 14.4381 3.79279 14.5287 3.73901 14.6277L2.98894 16.0147L2.58418 16.7647L1.31614 19.1083C1.23406 19.2584 1.17462 19.4169 1.13782 19.5754C1.09819 19.7367 1.08121 19.898 1.08404 20.0594C1.08404 20.1273 1.0897 20.1952 1.09819 20.2603C1.11518 20.3934 1.14348 20.5264 1.18877 20.6538C1.29916 20.9736 1.49163 21.2651 1.76052 21.4972L1.8143 21.5425C1.90204 21.619 1.99545 21.6869 2.09452 21.7463C2.09735 21.7463 2.10018 21.7492 2.10301 21.752C2.19924 21.8114 2.30114 21.8595 2.40303 21.902C2.4087 21.902 2.41436 21.9077 2.42002 21.9105C2.47663 21.9331 2.5389 21.9473 2.59834 21.9643C2.64362 21.9784 2.68891 21.9954 2.7342 22.0039C2.74269 22.0039 2.75118 22.0096 2.75967 22.0096C2.8644 22.0294 2.97196 22.0407 3.08234 22.0407C3.09933 22.0407 3.11631 22.0407 3.13329 22.0407H3.13612C3.34275 22.0379 3.54088 22.0011 3.72769 21.9388C3.85223 21.8963 3.97111 21.8426 4.08433 21.7775C4.16924 21.7293 4.24849 21.6727 4.32491 21.6133C4.40134 21.5539 4.4721 21.4859 4.5372 21.4123C4.52871 21.5057 4.52588 21.5991 4.52871 21.6925C4.5372 21.936 4.58532 22.1794 4.67306 22.4058C4.70136 22.4822 4.73533 22.5558 4.77213 22.6266C4.80892 22.6974 4.85138 22.7681 4.89667 22.8361C4.9646 22.9379 5.04385 23.0342 5.13159 23.1248C5.21934 23.2153 5.31557 23.2974 5.4203 23.371L5.4854 23.4163C5.57314 23.4786 5.66372 23.5323 5.75712 23.5833C5.77128 23.5918 5.78543 23.6003 5.79958 23.6059C5.89016 23.6512 5.98356 23.6908 6.0798 23.7248C6.09678 23.7305 6.11659 23.7361 6.13358 23.7446C6.21 23.7701 6.28925 23.7871 6.3685 23.8041C6.38832 23.8097 6.40813 23.8154 6.42794 23.8182C6.43643 23.8182 6.4421 23.8182 6.45059 23.821C6.45908 23.821 6.46474 23.821 6.47323 23.8239C6.57513 23.8409 6.67702 23.8494 6.78175 23.8494C6.78741 23.8494 6.79024 23.8494 6.7959 23.8494C6.861 23.8494 6.9261 23.8465 6.9912 23.838C6.99403 23.838 6.99686 23.838 7.00253 23.838C7.30821 23.8041 7.59126 23.7107 7.84317 23.5691C7.86015 23.6456 7.87997 23.7192 7.90544 23.7927C7.95356 23.9399 8.01583 24.0815 8.09225 24.2201C8.13188 24.2881 8.1715 24.356 8.21679 24.4211C8.24793 24.4636 8.28472 24.5032 8.31869 24.5456C8.35265 24.5881 8.38379 24.6306 8.42058 24.6702L8.48002 24.7353C8.55645 24.8174 8.63853 24.8966 8.72627 24.9702C8.81119 25.0438 8.90176 25.1117 8.998 25.1712C9.07725 25.2221 9.1565 25.2702 9.24142 25.3099C9.32067 25.3495 9.39992 25.3835 9.482 25.4146C9.56409 25.4457 9.649 25.4712 9.73391 25.491C9.83581 25.5165 9.94054 25.5363 10.0453 25.5476C10.0764 25.5505 10.1047 25.5476 10.133 25.5533C10.184 25.5561 10.2349 25.5618 10.2859 25.5618C10.3906 25.5618 10.4953 25.5533 10.5972 25.5391C10.6227 25.5363 10.6482 25.5335 10.6736 25.5278C10.7755 25.5108 10.8746 25.491 10.9737 25.4627C11.0246 25.675 11.1095 25.8816 11.2341 26.0741L11.2737 26.1335C11.3105 26.1901 11.3558 26.2411 11.3982 26.2949C11.4322 26.3373 11.4605 26.3826 11.4945 26.4194C11.5765 26.51 11.6643 26.5921 11.7605 26.6657C11.8568 26.7392 11.9587 26.8043 12.0634 26.8581C12.1002 26.8779 12.1398 26.8921 12.1766 26.9091C12.2077 26.9232 12.2389 26.9345 12.27 26.9459C12.3125 26.96 12.3549 26.977 12.4002 26.9883C12.4059 26.9883 12.4087 26.9883 12.4144 26.9912C12.42 26.994 12.4228 26.9912 12.4285 26.994C12.5078 27.0138 12.5842 27.0308 12.6634 27.0421C12.6974 27.0478 12.7285 27.0449 12.7625 27.0478C12.8134 27.0506 12.8644 27.0563 12.9125 27.0591C12.9153 27.0591 12.9182 27.0591 12.921 27.0591C12.9267 27.0591 12.9295 27.0591 12.9352 27.0591C12.9889 27.0591 13.0455 27.0563 13.0993 27.0506C13.1531 27.0449 13.2069 27.0364 13.2607 27.028C13.289 27.0223 13.3173 27.0166 13.3456 27.011C13.3994 26.9997 13.4531 26.9855 13.5069 26.9685C13.5607 26.9515 13.6145 26.9346 13.6654 26.9119C13.6654 26.9119 13.6711 26.9119 13.6711 26.9091C13.6824 26.9034 13.6966 26.8978 13.7079 26.8921C13.7956 26.8525 13.8805 26.8043 13.9626 26.7534C13.9881 26.7392 14.0107 26.7223 14.0334 26.7053C14.0787 26.6713 14.1268 26.6374 14.1692 26.6006C14.2145 26.5638 14.257 26.527 14.2966 26.4845L15.1118 25.6807L15.341 25.4542L17.9168 22.9125L17.9253 22.904L17.9366 22.9266Z" fill="#007931"/>
<path d="M38.9583 1.06698L37.4638 1.39532L29.1904 3.22096C28.8734 3.29172 28.5394 3.26625 28.2365 3.14737H28.2309C28.0667 3.07944 27.8941 3.01151 27.7129 2.94074C26.8128 2.58694 25.7514 2.17369 24.7551 1.78592C24.557 1.7095 24.3588 1.63307 24.1664 1.55665C22.6294 0.959425 21.3868 0.478248 21.3868 0.478248C21.2057 0.398995 21.0246 0.328234 20.8377 0.268794C20.467 0.149915 20.0848 0.0678317 19.7027 0.0282053C19.5103 0.00839213 19.3178 -0.00292969 19.1253 -0.00292969C18.7064 -0.00292969 18.2875 0.0451881 17.8799 0.135763C17.1978 0.291438 16.5439 0.574483 15.9552 0.982069L9.9886 5.12303C9.91218 5.1768 9.83859 5.23058 9.77066 5.29002C9.62913 5.4089 9.49893 5.53627 9.38289 5.67779C9.30363 5.77403 9.23287 5.87876 9.16494 5.98348C9.08569 6.10802 9.01493 6.23822 8.95832 6.37409C8.88756 6.54108 8.83661 6.71657 8.80264 6.89772C8.78 7.01943 8.76585 7.14114 8.76019 7.26285C8.74886 7.50344 8.76868 7.7412 8.81679 7.97046C8.91586 8.429 9.13097 8.8564 9.44799 9.2102C9.52724 9.29795 9.61215 9.38286 9.70556 9.46211C9.76783 9.51306 9.8301 9.56401 9.8952 9.6093C9.91501 9.62345 9.93765 9.6376 9.95747 9.64892C10.0028 9.67723 10.0452 9.70836 10.0933 9.73384C10.1188 9.74799 10.1471 9.76214 10.1726 9.77629C10.215 9.79894 10.2547 9.82158 10.3 9.84139C10.3283 9.85555 10.3594 9.86687 10.3905 9.87819C10.433 9.89517 10.4726 9.91216 10.5151 9.92914C10.5462 9.94046 10.5802 9.94895 10.6113 9.96027C10.6509 9.97443 10.6934 9.98575 10.733 9.99707C10.767 10.0056 10.8009 10.0141 10.8349 10.0197C10.8745 10.0282 10.917 10.0395 10.9566 10.0452C10.9906 10.0508 11.0274 10.0565 11.0613 10.0593C11.101 10.065 11.1434 10.0707 11.1831 10.0735C11.2199 10.0763 11.2538 10.0792 11.2906 10.0792C11.3302 10.0792 11.3727 10.0848 11.4123 10.0848C11.4208 10.0848 11.4321 10.0848 11.4406 10.0848C11.4718 10.0848 11.5001 10.0848 11.5312 10.082C11.5652 10.082 11.5991 10.082 11.6331 10.0792C11.6727 10.0792 11.7152 10.0707 11.7548 10.0678C11.7888 10.065 11.8227 10.0622 11.8539 10.0565C11.8963 10.0508 11.936 10.0424 11.9784 10.0339C12.0095 10.0282 12.0435 10.0225 12.0746 10.0141C12.1171 10.0056 12.1567 9.99424 12.1992 9.98292C12.2303 9.97443 12.2615 9.96593 12.2926 9.95744C12.3351 9.94329 12.3775 9.92914 12.4171 9.91499C12.4454 9.90366 12.4766 9.89517 12.5049 9.88385C12.5473 9.86687 12.5898 9.84706 12.6322 9.82724C12.6577 9.81592 12.686 9.8046 12.7143 9.79045C12.7624 9.7678 12.8077 9.74233 12.853 9.71686C12.8728 9.70553 12.8955 9.69421 12.9153 9.68289C12.9804 9.64326 13.0455 9.60081 13.1106 9.55835L15.0381 8.20539L17.8941 6.20143L18.3215 5.9014L19.1253 5.37494C19.1649 5.35229 19.2102 5.33814 19.2527 5.32682C19.2668 5.32399 19.281 5.32399 19.298 5.32116C19.3291 5.3155 19.3574 5.30984 19.3885 5.30984C19.3914 5.30984 19.397 5.30984 19.3999 5.30984C19.4225 5.30984 19.448 5.3155 19.4706 5.31833C19.4848 5.31833 19.4989 5.31833 19.5103 5.32116C19.5499 5.32965 19.5923 5.34097 19.6291 5.35795L20.0056 5.52495L20.382 5.69195L21.0812 5.99198L21.7803 6.292L22.8106 6.73355C23.3795 6.97697 23.9343 7.2487 24.4862 7.53174C24.8032 7.69591 25.1853 7.90819 25.5844 8.14029C25.8505 8.29597 26.1194 8.4573 26.3826 8.61864C26.5977 8.75167 26.8015 8.87904 26.994 9.00358C27.0761 9.05736 27.1525 9.10548 27.2289 9.15642C27.2997 9.20454 27.3733 9.25266 27.4384 9.29512L28.4007 9.94895L28.4092 9.95461L28.4177 9.96027L28.4319 9.97159L30.9368 11.8029L34.4664 14.3814L39.9914 13.2181V1.9048C39.9914 1.35569 39.4848 0.948103 38.9498 1.06698H38.9583Z" fill="#007931"/>
<path d="M33.7334 15.9412L29.9434 13.173L27.4469 11.3502L26.4931 10.7049C25.7232 10.1813 24.4495 9.41987 23.7164 9.04058C23.1248 8.7349 22.6267 8.49714 22.1511 8.29334L21.1209 7.85179L19.7198 7.25174H19.7113L19.7028 7.24325L19.5132 7.15833L19.2839 7.30835L14.0957 10.9483C13.3116 11.4974 12.3974 11.789 11.4464 11.789C10.3963 11.789 9.38579 11.421 8.60458 10.7502C7.41296 9.73122 6.86385 8.20277 7.12709 6.65168C7.12992 6.63187 7.13275 6.61488 7.13558 6.59507C7.3422 5.46289 8.03 4.41845 9.02349 3.72782L9.94339 3.09097L1.05293 1.00209C0.515143 0.87472 0 1.28514 0 1.83707V15.6639L1.09539 15.9667L2.25021 13.8297C2.25021 13.8297 2.25587 13.8212 2.25587 13.8184C2.34645 13.6514 2.45401 13.4872 2.58421 13.3202C2.61817 13.2749 2.65497 13.2325 2.70025 13.1787C2.79649 13.0683 2.89839 12.9636 3.00877 12.8589C3.05123 12.8192 3.09369 12.7796 3.13898 12.7428C3.25785 12.6438 3.37956 12.5532 3.50976 12.4711C3.54373 12.4485 3.58053 12.423 3.62015 12.4003C3.78149 12.3041 3.95698 12.2192 4.14379 12.1428C4.19474 12.123 4.24568 12.106 4.2938 12.089C4.42966 12.0409 4.57119 12.0012 4.70705 11.9701C4.76649 11.956 4.82876 11.9446 4.89386 11.9333C5.03538 11.9078 5.17973 11.8937 5.32692 11.8852C5.35522 11.8852 5.38353 11.8795 5.41466 11.8795C5.45146 11.8795 5.49108 11.8767 5.52505 11.8767C5.67506 11.8767 5.7996 11.8909 5.88169 11.8993H5.89301C5.94113 11.9022 6.02887 11.9107 6.1336 11.9276C6.32607 11.9588 6.51854 12.0069 6.71384 12.072C6.73365 12.0777 6.75347 12.0833 6.77045 12.0918C7.1752 12.2362 7.54883 12.4456 7.87716 12.7145C7.88848 12.7117 7.90263 12.706 7.91395 12.7032C7.95358 12.6919 7.99321 12.6834 8.03566 12.6721C8.14605 12.6438 8.25644 12.6211 8.364 12.6041C8.41211 12.5956 8.46306 12.5871 8.51118 12.5815C8.6244 12.5673 8.74045 12.5588 8.8565 12.5532C8.87914 12.5532 8.89895 12.5532 8.9216 12.5503C8.9499 12.5503 8.98104 12.5503 9.00651 12.5503C9.12256 12.5503 9.22162 12.5588 9.28389 12.5645H9.29522C9.35749 12.5673 9.42259 12.573 9.48486 12.5815C9.64336 12.6013 9.8047 12.6296 9.94905 12.6664C9.9632 12.6692 9.97736 12.6721 9.99151 12.6777C10.4161 12.7881 10.8152 12.9636 11.1775 13.2042C11.5256 13.4335 11.8341 13.7193 12.0945 14.0477C12.1144 14.0731 12.1342 14.0986 12.154 14.1241C12.2304 14.0873 12.3097 14.0562 12.3832 14.025C12.4172 14.0109 12.4512 13.9967 12.488 13.9854C12.6295 13.9344 12.771 13.892 12.9125 13.858C12.9465 13.8495 12.9805 13.841 13.0173 13.8354C13.1305 13.8099 13.2437 13.7901 13.3569 13.7759C13.4022 13.7703 13.4447 13.7646 13.4871 13.759C13.5947 13.7476 13.7022 13.742 13.807 13.7391C13.8438 13.7391 13.8806 13.7363 13.9202 13.7363C13.94 13.7363 13.957 13.7363 13.9768 13.7363C14.107 13.7363 14.24 13.7448 14.3731 13.7618C14.4098 13.7646 14.4466 13.7703 14.4863 13.7759C14.5089 13.7788 14.5344 13.7816 14.557 13.7873C14.6391 13.7986 14.7212 13.8127 14.8033 13.8297C14.8486 13.8382 14.8967 13.8495 14.9448 13.8637C15.0439 13.8892 15.1458 13.9175 15.2562 13.9543C15.2958 13.9656 15.3326 13.9797 15.375 13.9939C15.525 14.0477 15.6581 14.1071 15.7855 14.1694C16.2836 14.4156 16.7223 14.7496 17.0846 15.1657C17.2007 15.2987 17.3111 15.4402 17.4101 15.5874C17.5403 15.7799 17.6564 15.9837 17.7526 16.1988C17.9847 16.7083 18.1121 17.2489 18.1319 17.8093C18.1347 17.9197 18.1347 18.0329 18.1319 18.1433C18.1659 18.1603 18.1998 18.1745 18.2338 18.1943C18.4036 18.282 18.5565 18.3754 18.6952 18.4773C19.2613 18.8877 19.6971 19.4453 19.9604 20.0879C20.0425 20.2916 20.1076 20.5068 20.1528 20.7247C20.2123 21.0134 20.2406 21.3078 20.2321 21.5993C20.2236 21.9163 20.1698 22.239 20.0764 22.556C20.0509 22.6381 20.0198 22.7145 19.9887 22.7938C19.9972 22.7994 20.0085 22.8023 20.017 22.8079L23.6003 25.3695C24.3872 25.9327 25.4883 25.7063 25.9892 24.8798C26.4393 24.1354 26.244 23.1702 25.5335 22.6636L20.3425 18.95C19.9745 18.6868 19.884 18.1886 20.1189 17.8122C20.1245 17.8008 20.1302 17.7924 20.1359 17.781C20.1387 17.7754 20.1415 17.7697 20.1444 17.7669C20.1444 17.764 20.15 17.7612 20.1528 17.7584C20.1642 17.7442 20.1727 17.7273 20.184 17.7131C20.201 17.6933 20.2208 17.6735 20.2406 17.6593C20.5293 17.3734 20.9878 17.3282 21.3303 17.5716L27.7215 22.1428C28.5593 22.7428 29.7368 22.389 30.1076 21.4267C30.3651 20.7558 30.1359 19.9973 29.5528 19.5812L23.49 15.2478C23.1078 14.976 23.0201 14.4439 23.2918 14.0618C23.2975 14.0533 23.3031 14.0477 23.3088 14.042C23.3201 14.025 23.3286 14.008 23.3428 13.9911C23.3626 13.9684 23.3852 13.9458 23.4079 13.9288C23.6966 13.6627 24.1438 13.6259 24.475 13.8637L31.5681 18.9359C32.5191 19.6152 33.8551 19.25 34.3278 18.1801C34.6787 17.3876 34.4297 16.4564 33.7277 15.9469L33.7334 15.9412Z" fill="#007931"/>
</g>
<defs>
<clipPath id="clip0_11618_36091">
<rect width="40" height="28.899" fill="white"/>
</clipPath>
</defs>
</svg>
