<?xml version="1.0" encoding="utf-8"?>
<!-- Generator: Adobe Illustrator 25.0.1, SVG Export Plug-In . SVG Version: 6.00 Build 0)  -->
<svg version="1.1" id="Layer_1" xmlns="http://www.w3.org/2000/svg" xmlns:xlink="http://www.w3.org/1999/xlink" x="0px" y="0px"
	 viewBox="0 0 40 40" style="enable-background:new 0 0 40 40;" xml:space="preserve">
<style type="text/css">
	.st0{fill-rule:evenodd;clip-rule:evenodd;fill:#007931;}
</style>
<desc>Created with Sketch.</desc>
<g id="Components">
	<g id="C105-Statistics" transform="translate(-341.000000, -257.000000)">
		<g id="Icon_CO2" transform="translate(341.000000, 257.000000)">
			<path id="Fill-1" class="st0" d="M30.2,29.6c-1.9,0-3.5,1.6-3.5,3.5c0,1.9,1.6,3.5,3.5,3.5s3.5-1.6,3.5-3.5
				C33.7,31.1,32.2,29.6,30.2,29.6"/>
			<path id="Fill-3" class="st0" d="M19.3,34.8c-1.4,0-2.5,1.1-2.5,2.5c0,1.4,1.1,2.5,2.5,2.5c1.4,0,2.5-1.1,2.5-2.5
				C21.8,35.9,20.7,34.8,19.3,34.8"/>
			<path id="Fill-6" class="st0" d="M21.4,12.7c-1.3,0-2,1.1-2,2.8s0.7,2.8,2,2.8c1.3,0,2-1.1,2-2.8S22.7,12.7,21.4,12.7"/>
			<path id="Fill-8" class="st0" d="M26.5,21.8v-1l1.7-1.5c0.3-0.3,0.5-0.4,0.5-0.7c0-0.3-0.2-0.4-0.5-0.4c-0.4,0-0.9,0.2-1.3,0.5
				l-0.2-1.2c0.5-0.3,1-0.5,1.8-0.5c1.1,0,1.7,0.6,1.7,1.4c0,0.7-0.4,1.1-1,1.6l-0.9,0.7H30l0.2,1.2H26.5z M21.4,20.1
				c-2.5,0-4.2-1.8-4.2-4.5c0-2.7,1.6-4.6,4.2-4.6c2.5,0,4.2,1.8,4.2,4.5C25.6,18.2,23.9,20.1,21.4,20.1L21.4,20.1z M14.1,20.1
				c-2.6,0-4.2-1.8-4.2-4.5c0-2.7,1.7-4.5,4.3-4.5c0.9,0,1.7,0.2,2.3,0.6l-0.3,2c-0.5-0.4-1.1-0.7-1.9-0.7c-1.4,0-2.2,1-2.2,2.7
				c0,1.7,0.9,2.7,2.3,2.7c0.7,0,1.3-0.3,2-0.7l0.3,1.8C15.9,19.8,15.1,20.1,14.1,20.1L14.1,20.1z M32,10.2
				c-0.2-3.4-2.9-6.1-6.4-6.1c-0.6,0-1.2,0.1-1.8,0.3C22,1.8,18.9,0,15.4,0C9.8,0,5.2,4.6,5.2,10.2c0,0.7,0.1,1.4,0.2,2
				C2.3,13.2,0,16.1,0,19.5c0,4.2,3.4,7.6,7.6,7.6h0.2c0.7,2.4,3,4.2,5.6,4.2c1.6,0,3.1-0.6,4.1-1.7c0.8,0.6,1.9,1,3,1
				c2.3,0,4.2-1.5,4.8-3.5h6c4.7,0,8.4-3.8,8.4-8.4C39.8,14.2,36.4,10.6,32,10.2L32,10.2z"/>
		</g>
	</g>
</g>
</svg>
