<svg width="40" height="40" viewBox="0 0 40 40" fill="none" xmlns="http://www.w3.org/2000/svg">
<g clip-path="url(#clip0_9616_32144)">
<path d="M38.8225 35.7431H39.9972V34.0448H38.347L37.8573 32.2984H39.9972V30.6001H37.3847L34.7467 21.1577H5.25333L2.61534 30.6001H0V32.2984H2.13982L1.65016 34.0448H0V35.7431H1.17464L0 39.9491H40L38.8254 35.7431H38.8225ZM36.5836 34.0448H32.5333V32.2984H36.0968L36.5865 34.0448H36.5836ZM21.8228 32.2984H29.032V34.0448H21.8228V32.2984ZM18.3244 34.0448H11.1152V32.2984H18.3244V34.0448ZM6.54118 22.856H33.4588L35.6241 30.6001H32.5361V29.5953L30.7869 28.415L29.0376 29.5953V30.6001H21.8285V29.5953L20.0793 28.415L18.33 29.5953V30.6001H11.1209V29.5953L9.37164 28.415L7.62242 29.5953V30.6001H4.37588L6.54118 22.856ZM3.9032 32.2984H7.61959V34.0448H3.41353L3.9032 32.2984ZM2.23889 38.2508L2.94084 35.7431H7.61959V38.2508H2.23889ZM11.118 38.2508V35.7431H18.3272V38.2508H11.118ZM21.8256 38.2508V35.7431H29.0348V38.2508H21.8256ZM32.5333 35.7431H37.0592L37.7611 38.2508H32.5333V35.7431Z" fill="#007931"/>
<path d="M31.3727 23.9089L29.4395 19.3009H30.2179L28.2819 14.6844H29.0857L27.645 11.2539H28.0809L26.6883 6.69403L25.2957 11.2539H25.7316L24.2909 14.6844H25.0948L24.5655 15.9468L22.8842 12.4144H24.3023L21.7633 7.08463H22.5304L20.0764 0L17.6224 7.08463H18.3894L15.8505 12.4144H17.2714L15.4599 16.2185L14.8146 14.6844H15.6213L14.1805 11.2539H14.6164L13.2239 6.69403L11.8284 11.2539H12.2643L10.8236 14.6844H11.6303L9.69145 19.3009H10.4727L8.53662 23.9089H11.0614H13.1701L11.8228 26.7393H16.2666H28.33L26.9827 23.9089H31.3727Z" fill="#007931"/>
</g>
<defs>
<clipPath id="clip0_9616_32144">
<rect width="40" height="39.9491" fill="white"/>
</clipPath>
</defs>
</svg>
